<?xml version="1.0" encoding="UTF-8"?>
<svg width="193px" height="31px" viewBox="0 0 193 31" version="1.1" xmlns="http://www.w3.org/2000/svg" xmlns:xlink="http://www.w3.org/1999/xlink">
    <!-- Generator: Sketch 48.1 (47250) - http://www.bohemiancoding.com/sketch -->
    <title>witeboard</title>
    <desc>Created with Sketch.</desc>
    <defs></defs>
    <g id="witeboard-v3" stroke="none" stroke-width="1" fill="none" fill-rule="evenodd" transform="translate(-628.000000, -411.000000)">
        <path d="M655.682366,421.01227 L661.950552,421.01227 L654.883067,440.447853 L649.456249,440.447853 L645.165276,429.089395 L640.916372,440.447853 L635.489553,440.447853 L628.38,421.01227 L634.690254,421.01227 L638.308133,432.412796 L642.262559,421.01227 L648.110061,421.01227 L652.064487,432.412796 L655.682366,421.01227 Z M670.700771,411.042068 L670.700771,417.436459 L663.885697,417.436459 L663.885697,411.042068 L670.700771,411.042068 Z M664.138107,440.447853 L664.138107,421.01227 L670.490429,421.01227 L670.490429,440.447853 L664.138107,440.447853 Z M686.981227,426.312883 L682.984733,426.312883 L682.984733,432.160386 C682.984733,433.969325 683.447485,434.558282 685.088151,434.558282 L685.803313,434.558282 L685.803313,440.447853 L683.153006,440.447853 C679.19858,440.447853 676.63241,438.554777 676.63241,433.885188 L676.63241,426.312883 L672.846258,426.312883 L672.846258,421.01227 L676.63241,421.01227 L676.63241,413.229623 L682.984733,413.229623 L682.984733,421.01227 L686.981227,421.01227 L686.981227,426.312883 Z M698.802436,420.423313 C704.649939,420.423313 708.436091,423.788782 708.436091,430.814198 L708.436091,432.244522 L694.511464,432.244522 C694.932147,434.684487 696.867292,435.778265 699.47553,435.778265 C701.831358,435.778265 703.892708,434.810692 705.112691,434.011394 L707.42645,438.807187 C705.365101,440.069238 702.714794,441.078878 699.391394,441.078878 C692.870798,441.078878 688.537756,436.998247 688.537756,430.814198 C688.537756,424.251534 692.828729,420.423313 698.802436,420.423313 Z M698.592095,424.924628 C696.446608,424.924628 694.848011,425.976337 694.553532,428.500438 L702.29411,428.500438 C702.209974,426.228747 700.653444,424.924628 698.592095,424.924628 Z M723.87518,441.078878 C720.762121,441.078878 718.784908,439.774759 717.564926,437.797546 L717.480789,437.797546 L717.480789,440.447853 L711.128466,440.447853 L711.128466,411 L717.480789,411 L717.480789,423.662577 L717.564926,423.662577 C718.784908,421.685364 720.762121,420.381245 723.87518,420.381245 C728.923383,420.381245 733.130219,423.914987 733.130219,430.730061 C733.130219,437.545136 728.923383,441.078878 723.87518,441.078878 Z M722.108309,435.273444 C724.674479,435.273444 726.609623,433.506573 726.609623,430.730061 C726.609623,427.95355 724.674479,426.186678 722.108309,426.186678 C719.584207,426.186678 717.649062,427.95355 717.649062,430.730061 C717.649062,433.506573 719.584207,435.273444 722.108309,435.273444 Z M745.792796,420.381245 C752.10305,420.381245 756.73057,424.503944 756.73057,430.730061 C756.73057,436.956179 752.10305,441.078878 745.792796,441.078878 C739.52461,441.078878 734.89709,436.956179 734.89709,430.730061 C734.89709,424.503944 739.52461,420.381245 745.792796,420.381245 Z M745.792796,426.186678 C743.268694,426.186678 741.249413,427.95355 741.249413,430.730061 C741.249413,433.506573 743.268694,435.273444 745.792796,435.273444 C748.358966,435.273444 750.336179,433.506573 750.336179,430.730061 C750.336179,427.95355 748.358966,426.186678 745.792796,426.186678 Z M767.710412,441.078878 C762.662209,441.078878 758.497441,437.545136 758.497441,430.730061 C758.497441,423.914987 762.662209,420.381245 767.710412,420.381245 C770.865539,420.381245 772.842752,421.685364 774.062734,423.662577 L774.146871,423.662577 L774.146871,421.01227 L780.499194,421.01227 L780.499194,440.447853 L774.146871,440.447853 L774.146871,437.797546 L774.062734,437.797546 C772.842752,439.774759 770.865539,441.078878 767.710412,441.078878 Z M769.477283,435.273444 C772.043453,435.273444 773.978598,433.506573 773.978598,430.730061 C773.978598,427.95355 772.043453,426.186678 769.477283,426.186678 C766.953181,426.186678 765.018037,427.95355 765.018037,430.730061 C765.018037,433.506573 766.953181,435.273444 769.477283,435.273444 Z M797.074128,420.423313 L797.074128,426.775635 L796.527239,426.775635 C792.278335,426.775635 790.553532,428.332165 790.553532,433.296231 L790.553532,440.447853 L784.201209,440.447853 L784.201209,421.01227 L790.427327,421.01227 L790.427327,424.966696 L790.511464,424.966696 C791.647309,421.7695 793.876933,420.423313 796.947923,420.423313 L797.074128,420.423313 Z M807.591218,441.078878 C802.543015,441.078878 798.378247,437.545136 798.378247,430.730061 C798.378247,423.914987 802.543015,420.381245 807.591218,420.381245 C810.746345,420.381245 812.723558,421.685364 813.943541,423.662577 L814.027677,423.662577 L814.027677,411 L820.38,411 L820.38,440.447853 L814.027677,440.447853 L814.027677,437.797546 L813.943541,437.797546 C812.723558,439.774759 810.746345,441.078878 807.591218,441.078878 Z M809.358089,435.273444 C811.924259,435.273444 813.859404,433.506573 813.859404,430.730061 C813.859404,427.95355 811.924259,426.186678 809.358089,426.186678 C806.833988,426.186678 804.898843,427.95355 804.898843,430.730061 C804.898843,433.506573 806.833988,435.273444 809.358089,435.273444 Z" id="witeboard" fill="#222222"></path>
    </g>
</svg>